<?xml version="1.0" encoding="utf-8"?>
<!-- Generator: Adobe Illustrator 26.3.1, SVG Export Plug-In . SVG Version: 6.00 Build 0)  -->
<svg version="1.1" id="Layer_1" xmlns="http://www.w3.org/2000/svg" xmlns:xlink="http://www.w3.org/1999/xlink" x="0px" y="0px"
	 viewBox="0 0 226.34 53.18" style="enable-background:new 0 0 226.34 53.18;" xml:space="preserve"
	 width="190%" height="auto">
<style type="text/css">
	.st0{fill:#FFFFFF;}
	.st1{fill:#FFFFFF;}
	.st2{fill:#DAA900;}
</style>
<g>
	<g>
		<path class="st2" d="M8.16,0.59v40.05c0,3.71,1.63,5.04,4.23,5.04s4.23-1.33,4.23-5.04V0.59h7.71v39.53
			c0,8.31-4.15,13.05-12.17,13.05S0,48.43,0,40.13V0.59H8.16z"/>
		<path class="st2" d="M52.06,33.15v6.9c0,8.31-4.15,13.06-12.16,13.06s-12.17-4.75-12.17-13.06v-27C27.74,4.75,31.89,0,39.9,0
			s12.16,4.75,12.16,13.05v5.04h-7.71v-5.56c0-3.71-1.63-5.12-4.23-5.12c-2.6,0-4.23,1.41-4.23,5.12v28.04
			c0,3.71,1.63,5.04,4.23,5.04c2.6,0,4.23-1.34,4.23-5.04v-7.42H52.06z"/>
		<g>
			<path class="st0" d="M72.83,37.46l5.56-36.86h11.35v51.92h-7.71V15.28l-5.64,37.23h-7.71L62.59,15.8v36.72h-7.12V0.59h11.35
				L72.83,37.46z"/>
		</g>
		<g>
			<path class="st0" d="M102.34,22.47h11.2v7.42h-11.2V45.1h14.09v7.42H94.18V0.59h22.25v7.42h-14.09V22.47z"/>
		</g>
		<g>
			<path class="st0" d="M137.05,52.51c-0.44-1.34-0.74-2.15-0.74-6.38v-8.16c0-4.82-1.63-6.6-5.34-6.6h-2.82v21.14h-8.16V0.59h12.31
				c8.46,0,12.09,3.93,12.09,11.94v4.08c0,5.34-1.71,8.83-5.34,10.53c4.08,1.71,5.42,5.64,5.42,11.05v8.01
				c0,2.52,0.07,4.38,0.89,6.3H137.05z M128.15,8.01v15.95h3.19c3.04,0,4.9-1.33,4.9-5.49v-5.12c0-3.71-1.26-5.34-4.15-5.34H128.15z
				"/>
		</g>
		<g>
			<path class="st0" d="M171.98,33.15v6.9c0,8.31-4.15,13.06-12.16,13.06c-8.01,0-12.17-4.75-12.17-13.06v-27
				c0-8.31,4.15-13.05,12.17-13.05c8.01,0,12.16,4.75,12.16,13.05v5.04h-7.71v-5.56c0-3.71-1.63-5.12-4.23-5.12
				c-2.6,0-4.23,1.41-4.23,5.12v28.04c0,3.71,1.63,5.04,4.23,5.04c2.6,0,4.23-1.34,4.23-5.04v-7.42H171.98z"/>
		</g>
		<g>
			<path class="st0" d="M183.62,22.47h11.2v7.42h-11.2V45.1h14.09v7.42h-22.25V0.59h22.25v7.42h-14.09V22.47z"/>
		</g>
		<g>
			<path class="st0" d="M201.27,0.59h12.91c8.16,0,12.16,4.53,12.16,12.83v26.26c0,8.31-4.01,12.83-12.16,12.83h-12.91V0.59z
				 M209.43,8.01V45.1h4.6c2.6,0,4.15-1.34,4.15-5.04v-27c0-3.71-1.56-5.04-4.15-5.04H209.43z"/>
		</g>
	</g>
</g>
</svg>
